<?xml version="1.0" encoding="UTF-8"?>
<svg id="Calque_1" data-name="Calque 1" xmlns="http://www.w3.org/2000/svg" xmlns:xlink="http://www.w3.org/1999/xlink" viewBox="0 0 2653.31 2632.02">
  <defs>
    <style>
      .cls-1 {
        fill: #2f2e41;
      }

      .cls-1, .cls-2, .cls-3, .cls-4, .cls-5, .cls-6, .cls-7, .cls-8, .cls-9 {
        stroke-width: 0px;
      }

      .cls-2 {
        fill: #3f3d56;
      }

      .cls-3 {
        fill: #239fe5;
      }

      .cls-4 {
        fill: #ccc;
      }

      .cls-5 {
        fill: #fff;
      }

      .cls-6 {
        fill: #ffb8b8;
      }

      .cls-7 {
        fill: #e6e6e6;
      }

      .cls-8 {
        fill: url(#Dégradé_sans_nom_40);
      }

      .cls-9 {
        fill: url(#Dégradé_sans_nom_35);
      }
    </style>
    <radialGradient id="Dégradé_sans_nom_40" data-name="Dégradé sans nom 40" cx="1631.81" cy="1021.5" fx="1631.81" fy="1021.5" r="1021.5" gradientUnits="userSpaceOnUse">
      <stop offset="0" stop-color="#b82121" stop-opacity=".15"/>
      <stop offset=".4" stop-color="#a11c1c" stop-opacity=".13"/>
      <stop offset=".74" stop-color="#5c1010" stop-opacity=".08"/>
      <stop offset="1" stop-color="#000" stop-opacity="0"/>
    </radialGradient>
    <radialGradient id="Dégradé_sans_nom_35" data-name="Dégradé sans nom 35" cx="875.75" cy="1756.27" fx="875.75" fy="1756.27" r="875.75" gradientUnits="userSpaceOnUse">
      <stop offset="0" stop-color="#064d99" stop-opacity=".15"/>
      <stop offset=".42" stop-color="#054080" stop-opacity=".13"/>
      <stop offset=".81" stop-color="#021b36" stop-opacity=".05"/>
      <stop offset="1" stop-color="#000" stop-opacity="0"/>
    </radialGradient>
  </defs>
  <circle class="cls-8" cx="1631.81" cy="1021.5" r="1021.5"/>
  <circle class="cls-9" cx="875.75" cy="1756.27" r="875.75"/>
  <g>
    <path class="cls-2" d="M1418.41,1209.4h-173.74l.19-1.74,61.62-560.37h58.79l.13,1.42,53.01,560.69ZM1252.85,1206.27h157.42l-47.86-555.85h-53.14l-56.42,555.85Z"/>
    <path class="cls-2" d="M1463.8,1232.11h-268.11v-25.84h268.11v25.84ZM1198.82,1228.98h261.85v-19.58h-261.85v19.58Z"/>
    <path class="cls-2" d="M1384.99,650.42h-96.21v-25.84h96.21v25.84ZM1291.91,647.29h89.95v-19.58h-89.95v19.58Z"/>
    <path class="cls-2" d="M1430.34,1269.99l36.91,150.78h12.83l-49.74-150.78ZM1467.25,1420.77h-36.35l-37.22-152.08-.77-3.13-8.18-33.45h33.12l11.03,33.45,1.03,3.13.42,1.3-.31-1.3-.77-3.13-8.95-36.58h-39.55l8.95,36.58.77,3.13,37.99,155.21h39.55l-.77-3.13Z"/>
    <path class="cls-2" d="M1230.05,1265.56l-1.1,3.13-52.73,152.08h16.02l37.22-152.08.77-3.13.45-1.86-.64,1.86ZM1239.19,1228.98l-8.5,34.72,10.95-31.59h33.11l-8.18,33.45-.77,3.13-37.22,152.08h-36.33l-.77,3.13h39.55l37.99-155.21.77-3.13,8.95-36.58h-39.55Z"/>
    <polygon class="cls-2" points="1569.03 1638.41 1501.84 1638.41 1437.99 1536.69 1440.86 1535.46 1503.91 1635.28 1561.15 1635.28 1482.83 1445.67 1485.71 1444.44 1569.03 1638.41"/>
    <polygon class="cls-2" points="1153.11 1638.41 1085.92 1638.41 1169.24 1444.44 1172.12 1445.67 1093.8 1635.28 1151.05 1635.28 1214.09 1535.46 1216.97 1536.69 1153.11 1638.41"/>
    <path class="cls-2" d="M1594.41,1446.62h-518.96v-25.84h518.96v25.84ZM1078.58,1443.49h512.7v-19.58h-512.7s0,19.58,0,19.58Z"/>
    <path class="cls-2" d="M1470.5,1589.09c-95.11-39.07-191.56-39.07-286.67,0l-1.89-2.77c90.81-54.94,175.72-64.35,290.44,0l-1.89,2.77Z"/>
    <path class="cls-2" d="M1462.66,1547.23c-89.51-39.13-180.29-39.13-269.8,0l-1.37-2.85c90.43-39.53,182.12-39.53,272.55,0l-1.37,2.85Z"/>
    <polygon class="cls-2" points="1430.03 1268.69 1228.96 1268.69 1230.05 1265.56 1429.26 1265.56 1430.03 1268.69"/>
    <polygon class="cls-2" points="1434.83 1286.83 1223.6 1286.83 1226.73 1280.36 1433.27 1280.36 1434.83 1286.83"/>
    <path class="cls-2" d="M1365.4,627.87h-59.09v-52.56h59.09v52.56ZM1309.44,624.74h52.83v-43.17l-49.7-3.13-3.13,46.3Z"/>
    <path class="cls-2" d="M1343.95,578.43h-18.04v-90.8h18.04v90.8ZM1329.04,575.3h11.78l-4.56-85.08-7.22.54v84.54Z"/>
  </g>
  <g>
    <path class="cls-4" d="M1751.85,1968.32h-448.51c-1.1,0-1.99-.89-1.99-1.99s.89-1.99,1.99-1.99h448.51c1.1,0,1.99.89,1.99,1.99s-.89,1.99-1.99,1.99Z"/>
    <circle class="cls-6" cx="1510.37" cy="1311.86" r="48.96"/>
    <polygon class="cls-6" points="1515.45 1893.25 1492.31 1901.11 1450.98 1815.6 1485.14 1804 1515.45 1893.25"/>
    <path class="cls-1" d="M1473.54,1900.11l44.63-15.16h0l9.54,28.1h0l-72.73,24.7h0c-5.27-15.52,3.04-32.37,18.55-37.64Z"/>
    <polygon class="cls-6" points="1567.74 1941.56 1543.33 1942.78 1526.98 1849.22 1563.01 1847.41 1567.74 1941.56"/>
    <path class="cls-1" d="M1525.54,1936.69l47.07-2.37h0l1.49,29.64h0l-76.71,3.86h0c-.82-16.37,11.78-30.3,28.15-31.13Z"/>
    <path class="cls-6" d="M1422.49,1630.7c8.27-7.36,9-20.03,1.64-28.3-.78-.88-1.65-1.69-2.57-2.42l23.27-67.33-35.86,9.17-16.6,62.53c-6.29,9.18-3.95,21.73,5.24,28.02,7.68,5.26,17.97,4.58,24.89-1.66h0Z"/>
    <path class="cls-1" d="M1565.46,1913.35c-.32,0-.63-.02-.95-.05l-33.13-3.51c-4.2-.42-7.52-3.73-7.97-7.92l-25.6-228.26-18.53,62.46,34.54,122.76c1.34,4.77-1.44,9.72-6.21,11.06-.46.13-.93.22-1.4.28l-33.58,3.86c-4.42.49-8.53-2.32-9.69-6.61l-36.7-138.15c-.3-1.14-.38-2.32-.22-3.48l16.49-123.99,123.02,9.86,8.9,292.44c.15,4.95-3.74,9.09-8.69,9.24-.09,0-.18,0-.27,0h0Z"/>
    <path class="cls-3" d="M1522.93,1632.87c-41.21,0-87.88-15.92-90.7-16.9l-.82-.28,46.5-238.58.86.04c18.43.75,68.71,1.13,69.22,1.13h.9s19.38,210.55,19.38,210.55l3.46,30.8-.42.34c-11.86,9.59-29.54,12.91-48.37,12.91Z"/>
    <path class="cls-1" d="M1448.47,1612.25l-29.08-11.71,14.82-179.29c.72-8.95,5.47-17.09,12.91-22.13l15.3-10.41h0c-1.51-5.14,1.43-10.54,6.57-12.05.99-.29,2.02-.42,3.05-.39l4.38.14c2.28-1.54,5.38-.94,6.92,1.35.78,1.16,1.04,2.6.71,3.96l-.96,19-34.62,211.55Z"/>
    <path class="cls-1" d="M1433.8,1580.11l-37.97-1.6,12.3-79.12,10.19-74.45c.73-9.8,9.27-17.14,19.07-16.41,1.36.1,2.71.36,4.01.77h0c8.22,2.58,13.41,10.68,12.31,19.23l-10.33,80.67-9.58,70.91Z"/>
    <path class="cls-1" d="M1493.92,1614.99l-.26-.8c-.18-.55-17.29-55.44,11.35-120.94l14.36-71.41,12.27-44.84c.47-1.62,1.67-2.93,3.25-3.53,1.87-.65,3.95-.11,5.28,1.36h0c8.55-2.51,17.75-1.59,25.63,2.56l17.23,9.08c7.88,4.15,11.96,13.1,9.93,21.77l-23.55,100.51,11.45,93.88-86.94,12.37Z"/>
    <path class="cls-6" d="M1519,1576.29c11.01,1.2,20.9-6.76,22.09-17.76.13-1.17.15-2.36.07-3.53l53.34-39.51-18.64-8.84-57.51,29.63c-11.03,1.49-18.76,11.65-17.27,22.68,1.25,9.23,8.66,16.4,17.93,17.35h0Z"/>
    <path class="cls-1" d="M1552.44,1558.61l-18.01-33.63,44.43-29.24-21.68-77.76c-3.49-12.51,3.82-25.48,16.33-28.97.55-.15,1.11-.29,1.67-.4h0c11.58-2.31,23.08,4.31,26.91,15.48l29.25,85.99c1.24,3.63.03,7.65-3.01,9.99l-75.88,58.54Z"/>
    <path class="cls-1" d="M1513.84,1322.25c-5.87.76-10.3-5.24-12.35-10.79-2.05-5.55-3.62-12.01-8.72-15.01-6.97-4.1-15.89.83-23.86-.52-9-1.53-14.86-11.07-15.32-20.19-.46-9.12,3.17-17.89,6.73-26.3l1.24,10.45c-.34-7.2,3.09-14.06,9.06-18.11l-1.6,15.33c1.43-8.87,9.78-14.91,18.66-13.48.02,0,.04,0,.07.01l-.25,9.14c10.4-1.24,20.89-2.47,31.32-1.53s20.93,4.24,28.84,11.11c11.82,10.27,16.14,27.19,14.69,42.79-1.45,15.6-7.89,30.25-14.6,44.4-1.69,3.56-4.02,7.58-7.94,8.03-3.52.41-6.74-2.53-7.83-5.9-.84-3.46-.81-7.07.1-10.51.99-5.26,2.24-10.63,1.31-15.9-.93-5.27-4.72-10.47-10.03-11.12s-10.74,5.42-8.19,10.13l-1.31-2.03Z"/>
    <path class="cls-7" d="M873.27,1859.83l-19.06-8.02-13.07-95.54h-174.1l-14.17,95.15-17.05,8.53c-2,1-2.81,3.43-1.81,5.43.69,1.37,2.09,2.24,3.62,2.24h234.08c2.24,0,4.05-1.81,4.05-4.05,0-1.63-.98-3.1-2.48-3.73Z"/>
    <path class="cls-4" d="M1182.66,1768.98H327.42c-9.34-.02-16.91-7.6-16.91-16.94v-120.6h889.05v120.6c0,9.34-7.56,16.92-16.91,16.94Z"/>
    <path class="cls-2" d="M1200.46,1688.43H309.73v-516.02c.01-11.28,9.15-20.41,20.43-20.43h849.88c11.28.01,20.41,9.15,20.43,20.43v516.02Z"/>
    <path class="cls-5" d="M1147.26,1650.98H362.93c-8.69,0-15.74-7.05-15.75-15.75v-430.05c0-8.69,7.05-15.74,15.75-15.75h784.33c8.69,0,15.74,7.05,15.75,15.75v430.05c0,8.69-7.05,15.74-15.75,15.75Z"/>
    <path class="cls-4" d="M1139.88,1868.61H380.4c-1.1,0-1.99-.89-1.99-1.99s.89-1.99,1.99-1.99h759.48c1.1,0,1.99.89,1.99,1.99s-.89,1.99-1.99,1.99Z"/>
    <path class="cls-2" d="M1073.58,1597.55H436.62c-1.1,0-1.99-.89-1.99-1.99v-305.29c0-1.1.89-1.99,1.99-1.99s1.99.89,1.99,1.99v303.3h634.97c1.1,0,1.99.89,1.99,1.99s-.89,1.99-1.99,1.99Z"/>
    <path class="cls-3" d="M572.71,1575.62h-57.93c-3.27,0-5.91-2.65-5.92-5.92v-79.86c0-3.27,2.65-5.91,5.92-5.92h57.93c3.27,0,5.91,2.65,5.92,5.92v79.86c0,3.27-2.65,5.91-5.92,5.92Z"/>
    <path class="cls-3" d="M678.36,1575.62h-57.93c-3.27,0-5.91-2.65-5.92-5.92v-155.61c0-3.27,2.65-5.91,5.92-5.92h57.93c3.27,0,5.91,2.65,5.92,5.92v155.61c0,3.27-2.65,5.91-5.92,5.92Z"/>
    <path class="cls-3" d="M784.01,1575.62h-57.93c-3.27,0-5.91-2.65-5.92-5.92v-79.86c0-3.27,2.65-5.91,5.92-5.92h57.93c3.27,0,5.91,2.65,5.92,5.92v79.86c0,3.27-2.65,5.91-5.92,5.92Z"/>
    <path class="cls-3" d="M889.66,1575.62h-57.93c-3.19.07-5.84-2.46-5.92-5.65v-186.05c.08-3.19,2.73-5.72,5.92-5.65h57.93c3.19-.07,5.84,2.46,5.92,5.65v186.05c-.08,3.19-2.73,5.72-5.92,5.65Z"/>
    <path class="cls-3" d="M995.31,1575.62h-57.93c-3.27,0-5.91-2.65-5.92-5.92v-239.33c0-3.27,2.65-5.91,5.92-5.92h57.93c3.27,0,5.91,2.65,5.92,5.92v239.33c0,3.27-2.65,5.91-5.92,5.92Z"/>
    <circle class="cls-2" cx="543.74" cy="1448.04" r="11.96"/>
    <circle class="cls-2" cx="649.39" cy="1370.3" r="11.96"/>
    <circle class="cls-2" cx="755.04" cy="1448.04" r="11.96"/>
    <circle class="cls-2" cx="860.69" cy="1332.43" r="11.96"/>
    <circle class="cls-2" cx="966.34" cy="1288.57" r="11.96"/>
    <polygon class="cls-2" points="755.29 1450.72 649.39 1371.4 544.94 1449.64 542.55 1446.45 649.39 1366.42 754.79 1445.36 859.53 1330.75 859.95 1330.58 965.6 1288.01 967.09 1291.71 861.86 1334.1 755.29 1450.72"/>
  </g>
</svg>